<svg width="717" height="241" viewBox="0 0 717 241" fill="none" xmlns="http://www.w3.org/2000/svg">
<path d="M73.0469 89.3672V110.07H47.4609V188H22.6562V110.07H7.61719V89.3672H22.6562V80.5781C22.6562 73.026 24.2188 66.5807 27.3438 61.2422C30.599 55.7734 34.8307 51.6068 40.0391 48.7422C45.2474 45.8776 50.9766 44.4453 57.2266 44.4453C61.3932 44.4453 65.0391 44.901 68.1641 45.8125C71.2891 46.724 74.0234 47.9609 76.3672 49.5234V70.2266C72.0703 67.6224 67.1224 66.3854 61.5234 66.5156C57.6172 66.6458 54.2969 67.9479 51.5625 70.4219C48.8281 72.7656 47.4609 76.6719 47.4609 82.1406V89.3672H73.0469ZM136.719 86.8281C146.354 86.8281 154.622 88.9115 161.523 93.0781C168.555 97.2448 173.893 103.039 177.539 110.461C181.315 117.753 183.203 126.216 183.203 135.852V146.398H111.719C113.021 153.039 116.276 158.378 121.484 162.414C126.693 166.451 133.073 168.469 140.625 168.469C147.786 168.469 154.297 167.036 160.156 164.172C166.016 161.307 170.703 158.378 174.219 155.383L174.023 178.43C170.898 181.164 166.211 183.964 159.961 186.828C153.841 189.562 147.07 190.93 139.648 190.93C129.883 190.93 120.964 188.716 112.891 184.289C104.948 179.862 98.5677 173.807 93.75 166.125C89.0625 158.443 86.7188 149.654 86.7188 139.758C86.7188 130.122 88.8672 121.333 93.1641 113.391C97.4609 105.448 103.385 99.0677 110.938 94.25C118.49 89.3021 127.083 86.8281 136.719 86.8281ZM136.133 108.508C130.013 108.508 124.87 110.396 120.703 114.172C116.536 117.948 113.672 123.026 112.109 129.406H159.375C158.854 122.375 156.25 117.167 151.562 113.781C146.875 110.266 141.732 108.508 136.133 108.508ZM299.609 47.375V188H274.805V171.398C271.94 176.737 267.773 181.359 262.305 185.266C256.836 189.042 250.456 190.93 243.164 190.93C235.221 190.93 227.865 188.911 221.094 184.875C214.453 180.839 209.115 174.979 205.078 167.297C201.042 159.615 199.023 150.305 199.023 139.367C199.023 128.43 201.042 119.055 205.078 111.242C209.245 103.43 214.779 97.4401 221.68 93.2734C228.711 88.9766 236.458 86.8281 244.922 86.8281C250.26 86.8281 255.664 88.0651 261.133 90.5391C266.602 93.013 271.159 96.3333 274.805 100.5V47.375H299.609ZM250 111.242C244.792 111.242 240.299 112.609 236.523 115.344C232.878 117.948 230.013 121.398 227.93 125.695C225.846 129.862 224.805 134.419 224.805 139.367C224.805 146.789 227.018 153.104 231.445 158.312C236.003 163.521 241.992 166.125 249.414 166.125C253.841 166.125 257.943 164.953 261.719 162.609C265.625 160.266 268.75 157.01 271.094 152.844C273.568 148.547 274.805 143.404 274.805 137.414V123.352C271.289 119.576 267.448 116.646 263.281 114.562C259.245 112.349 254.818 111.242 250 111.242ZM417.188 89.3672V148.156C417.188 156.88 415.234 164.432 411.328 170.812C407.422 177.062 402.083 181.88 395.312 185.266C388.672 188.651 381.12 190.344 372.656 190.344C364.062 190.344 356.38 188.651 349.609 185.266C342.969 181.88 337.695 177.062 333.789 170.812C330.013 164.432 328.125 156.88 328.125 148.156V89.3672H353.125L353.32 143.664C353.32 151.346 355.078 157.076 358.594 160.852C362.109 164.628 366.797 166.516 372.656 166.516C378.385 166.516 383.008 164.628 386.523 160.852C390.169 157.076 391.992 151.346 391.992 143.664V89.3672H417.188ZM490.43 86.8281C497.721 86.8281 503.711 88 508.398 90.3438C513.086 92.6875 516.797 94.9661 519.531 97.1797V120.031C516.146 117.557 512.305 115.474 508.008 113.781C503.841 112.089 498.698 111.242 492.578 111.242C487.63 111.242 483.008 112.479 478.711 114.953C474.544 117.427 471.224 120.747 468.75 124.914C466.276 129.081 465.039 133.833 465.039 139.172C465.039 147.245 467.643 153.885 472.852 159.094C478.06 164.302 484.635 166.906 492.578 166.906C498.698 166.906 503.841 166.125 508.008 164.562C512.305 162.87 516.146 160.786 519.531 158.312V180.969C516.797 183.312 513.086 185.591 508.398 187.805C503.711 189.888 497.721 190.93 490.43 190.93C480.404 190.93 471.484 188.586 463.672 183.898C455.99 179.081 449.87 172.766 445.312 164.953C440.885 157.01 438.672 148.417 438.672 139.172C438.672 132.271 439.909 125.695 442.383 119.445C444.987 113.195 448.633 107.661 453.32 102.844C458.008 97.8958 463.477 93.9896 469.727 91.125C476.107 88.2604 483.008 86.8281 490.43 86.8281ZM562.305 38C566.992 38 571.029 39.6927 574.414 43.0781C577.799 46.3333 579.492 50.2396 579.492 54.7969C579.492 59.224 577.799 63.1302 574.414 66.5156C571.029 69.901 566.992 71.5938 562.305 71.5938C557.617 71.5938 553.581 69.901 550.195 66.5156C546.94 63.1302 545.312 59.224 545.312 54.7969C545.312 50.2396 546.94 46.3333 550.195 43.0781C553.581 39.6927 557.617 38 562.305 38ZM576.758 89.3672V188H551.953V110.461H536.133V89.3672H576.758ZM647.07 86.8281C652.409 86.8281 657.812 88.0651 663.281 90.5391C668.75 93.013 673.307 96.3333 676.953 100.5V89.3672H701.758V188H676.953V171.398C674.089 176.737 669.922 181.359 664.453 185.266C658.984 189.042 652.604 190.93 645.312 190.93C637.37 190.93 630.013 188.911 623.242 184.875C616.602 180.839 611.263 174.979 607.227 167.297C603.19 159.615 601.172 150.305 601.172 139.367C601.172 128.43 603.19 119.055 607.227 111.242C611.393 103.43 616.927 97.4401 623.828 93.2734C630.859 88.9766 638.607 86.8281 647.07 86.8281ZM652.148 111.047C646.94 111.047 642.448 112.414 638.672 115.148C635.026 117.753 632.161 121.203 630.078 125.5C627.995 129.797 626.953 134.419 626.953 139.367C626.953 146.789 629.167 153.104 633.594 158.312C638.151 163.521 644.141 166.125 651.562 166.125C655.99 166.125 660.091 164.953 663.867 162.609C667.773 160.266 670.898 157.01 673.242 152.844C675.716 148.547 676.953 143.404 676.953 137.414V123.352C673.438 119.576 669.596 116.581 665.43 114.367C661.393 112.154 656.966 111.047 652.148 111.047Z" fill="black"/>
<circle cx="562" cy="53" r="20" fill="#216DE2"/>
</svg>
